# xmcd CD database file
#
# Track frame offsets:
#	150
#	18636
#	39188
#	56676
#	72726
#	94060
#	114580
#	129905
#	146237
#	157828
#	176335
#	193906
#	214553
#	231242
#
# Disc length: 3530 seconds
#
# Revision: 2
# Processed by: cddbd v1.5.2PL0 Copyright (c) Steve Scherf et al.
# Submitted via: CDex 1.51
#
DISCID=c50dc80e
DTITLE=Various Artist - Selecta Track-007
DYEAR=1900
DGENRE=Blues
TTITLE0=Caro Emerald - That Man
TTITLE1=Al Green Ft Lyle Lovett - Funny How Time Slips Away
TTITLE2=Carol Bayer Sager - You're oving Out Today
TTITLE3=Josh Turner - Your Man
TTITLE4=ABC - All Of My Heart ZM
TTITLE5=Madonna - Causing A Commotion
TTITLE6=John Holt - Help Me Make It Through The Night ZM
TTITLE7=John Holt - I'd Love You To Want Me ZM
TTITLE8=John Holt - Baby I'm A Want You
TTITLE9=DJ Sammy - Heaven (dance mix) ZM
TTITLE10=Bruce Springsteen - Santa Claus Is Comin To Town ZM
TTITLE11=Grandmaster Melle - White Lines (don't do it) ZM
TTITLE12=Sylvia - Y Viva Espana ZM
TTITLE13=USA For Africa - We Are The World ZM
EXTD=
EXTT0=
EXTT1=
EXTT2=
EXTT3=
EXTT4=
EXTT5=
EXTT6=
EXTT7=
EXTT8=
EXTT9=
EXTT10=
EXTT11=
EXTT12=
EXTT13=
PLAYORDER=
